# xmcd CD database file
#
# Track frame offsets:
#	150
#	14552
#	29620
#	44250
#	58999
#	75116
#	98000
#	113518
#	127613
#	146137
#
# Disc length: 2251 seconds
#
# Revision: 1
# Processed by: cddbd v1.5.1PL0 Copyright (c) Steve Scherf et al.
# Submitted via: CDex 1.51
#
DISCID=7808c90a
DTITLE=Dave Sharp - Time Travellin Demos 99-02
DYEAR=2002
DGENRE=Blues
TTITLE0=Breakdown
TTITLE1=Soul Devotion
TTITLE2=Sugar Land
TTITLE3=Love Magic
TTITLE4=The Traveller
TTITLE5=Just Like Joanne
TTITLE6=American Sky
TTITLE7=Soul To Soul
TTITLE8=The Fredom Drive
TTITLE9=Glory Glory
EXTD=YEAR: 2002
EXTT0=
EXTT1=
EXTT2=
EXTT3=
EXTT4=
EXTT5=
EXTT6=
EXTT7=
EXTT8=
EXTT9=
PLAYORDER=
